<svg xmlns="http://www.w3.org/2000/svg" xmlns:svg="http://www.w3.org/2000/svg" id="Layer_1" version="1.1" viewBox="0 0 141.49 99.6"><defs><style>.st0{fill:#fff}</style></defs><path id="path1052" d="M70.83,22.15c-12.59,0-23.26,8.54-26.57,20.1-2.88-6.14-9.1-10.43-16.28-10.43-9.87,0-17.98,8.11-17.98,17.98s8.11,17.99,17.98,17.99c7.18,0,13.41-4.3,16.28-10.44,3.31,11.57,13.98,20.11,26.57,20.11s23.12-8.41,26.51-19.85c2.93,6,9.08,10.18,16.15,10.18,9.87,0,17.99-8.12,17.99-17.99s-8.12-17.98-17.99-17.98c-7.07,0-13.23,4.18-16.15,10.17-3.39-11.44-14.01-19.84-26.51-19.84h0ZM70.83,32.7c9.51,0,17.1,7.59,17.1,17.1s-7.59,17.1-17.1,17.1-17.1-7.59-17.1-17.1,7.59-17.1,17.1-17.1ZM27.98,42.37c4.16,0,7.43,3.26,7.43,7.43s-3.26,7.43-7.43,7.43-7.43-3.26-7.43-7.43,3.26-7.43,7.43-7.43ZM113.5,42.37c4.17,0,7.43,3.26,7.43,7.43s-3.26,7.43-7.43,7.43-7.43-3.26-7.43-7.43,3.26-7.43,7.43-7.43Z" class="st0"/></svg>