<svg xmlns="http://www.w3.org/2000/svg" xmlns:svg="http://www.w3.org/2000/svg" xmlns:xlink="http://www.w3.org/1999/xlink" id="Ebene_1" x="0" y="0" version="1.1" viewBox="0 0 300 300" xml:space="preserve" style="enable-background:new 0 0 300 300"><defs id="defs74"><linearGradient id="Pfad_499_00000161620552563728473090000003454445015337385602_" x1="3.578" x2="3.578" y1="299.083" y2="297.296" gradientTransform="matrix(72,0,0,-72,49,21673)" gradientUnits="userSpaceOnUse"><stop style="stop-color:#fe319a" id="stop59" offset="0"/><stop style="stop-color:#e20074" id="stop61" offset="1"/></linearGradient><linearGradient id="linearGradient1192" x1="18.23" x2="150" y1="150" y2="0" gradientTransform="matrix(0.9909162,0,0,0.99091623,283.08824,126.10294)" gradientUnits="userSpaceOnUse" xlink:href="#linearGradient857"/><linearGradient id="linearGradient857"><stop style="stop-color:#0082c9;stop-opacity:1" id="stop853" offset="0"/><stop style="stop-color:#1cafff;stop-opacity:1" id="stop855" offset="1"/></linearGradient></defs><style id="style2" type="text/css">.st0{fill:url(#SVGID_1_)}.st5{fill:#fde07f}.st6{fill:#ffeeb6}</style><g id="g51"><linearGradient id="SVGID_1_" x1="224.238" x2="235.552" y1="251.262" y2="229.848" gradientUnits="userSpaceOnUse"><stop style="stop-color:#e5e5e5" id="stop4" offset="0"/><stop style="stop-color:#f2f2f2;stop-opacity:0" id="stop6" offset="1"/></linearGradient><polygon id="polygon9" points="221 245 251 236 221 222" class="st0"/><linearGradient id="SVGID_00000168800218275837730680000003462325949068373151_" x1="108.238" x2="119.552" y1="292.262" y2="270.848" gradientUnits="userSpaceOnUse"><stop style="stop-color:#e5e5e5" id="stop11" offset="0"/><stop style="stop-color:#f2f2f2;stop-opacity:0" id="stop13" offset="1"/></linearGradient><polygon style="fill:url(#SVGID_00000168800218275837730680000003462325949068373151_)" id="polygon16" points="105 286 135 277 105 263"/><linearGradient id="SVGID_00000003802560936691988940000016049607085827979708_" x1="51.958" x2="200.659" y1="185.093" y2="104.786" gradientUnits="userSpaceOnUse"><stop style="stop-color:#ebc863" id="stop18" offset=".319"/><stop style="stop-color:#fee182" id="stop20" offset="1"/></linearGradient><path style="fill:url(#SVGID_00000003802560936691988940000016049607085827979708_)" id="path23" d="M219,246H56c-1.7,0-3-1.3-3-3V33h151 c1.7,0,3,1.3,3,3v125.2c0,0.8,0.3,1.5,0.9,2.1l13.3,13.6c0.5,0.6,0.9,1.3,0.9,2.1V243C222,244.7,220.7,246,219,246z"/><g id="g39"><linearGradient id="SVGID_00000088830071281327557650000012927193665735863469_" x1="81.921" x2="83.161" y1="116.613" y2="222.792" gradientUnits="userSpaceOnUse"><stop style="stop-color:#ffefbc" id="stop25" offset="0"/><stop style="stop-color:#ffe495" id="stop27" offset="1"/></linearGradient><path style="fill:url(#SVGID_00000088830071281327557650000012927193665735863469_)" id="path30" d="M103.5,286L54,246V33l55.9,44.1 c0.7,0.6,1.1,1.4,1.1,2.4V211l-5,7v66.9C106,286.1,104.5,286.8,103.5,286z"/><linearGradient id="SVGID_00000075125985038499810010000013334681634146325900_" x1="58.956" x2="117.187" y1="126.31" y2="218.95" gradientUnits="userSpaceOnUse"><stop style="stop-color:#ffeaa5" id="stop32" offset="0"/><stop style="stop-color:#ffe086" id="stop34" offset="1"/></linearGradient><path style="fill:url(#SVGID_00000075125985038499810010000013334681634146325900_)" id="path37" d="M102.5,285.7l-49.5-40V33l55.8,44 c0.7,0.6,1.1,1.4,1.1,2.4v131.4l-5,7v66.8C104.9,285.8,103.5,286.5,102.5,285.7z"/></g><g id="g49"><rect id="rect41" width="1" height="200" x="60" y="46" class="st5"/><rect id="rect43" width="1" height="200" x="56.5" y="46" class="st5"/><rect id="rect45" width="1" height="200" x="57.5" y="46" class="st6"/><rect id="rect47" width="1" height="200" x="61" y="46" class="st6"/></g></g><g id="g69" transform="translate(0,-100)"><defs id="defs54"><rect id="SVGID_00000093176395783954265780000012512996052019405743_" width="128.7" height="128.7" x="122.3" y="139"/></defs><clipPath id="SVGID_00000106127748250350940740000017471206982484828042_"><use style="overflow:visible" id="use56" width="100%" height="100%" x="0" y="0" xlink:href="#SVGID_00000093176395783954265780000012512996052019405743_"/></clipPath><g id="g925" transform="matrix(0.81518987,0,0,0.81518987,-44.170655,200.60216)"><circle id="circle1050" cx="283.088" cy="126.103" r="79" style="fill:url(#linearGradient1192);fill-opacity:1;fill-rule:evenodd;stroke:none;stroke-width:.0990916;stroke-miterlimit:4;stroke-dasharray:none;stroke-opacity:1"/><path id="path1052" d="m 283.18965,95.813064 c -13.79313,0 -25.48394,9.350826 -29.10731,22.020146 -3.14909,-6.72 -9.97328,-11.42792 -17.83356,-11.42792 -10.80973,0 -19.69562,8.88589 -19.69562,19.69562 0,10.80972 8.88589,19.69967 19.69562,19.69967 7.86028,0 14.68447,-4.7108 17.83356,-11.43198 3.62337,12.67028 15.31418,22.02422 29.10731,22.02422 13.69111,0 25.32232,-9.21286 29.03837,-21.74023 3.20726,6.56859 9.94698,11.14799 17.69562,11.14799 10.80974,0 19.69967,-8.88995 19.69967,-19.69967 0,-10.80973 -8.88993,-19.69562 -19.69967,-19.69562 -7.74864,0 -14.48836,4.57653 -17.69562,11.14395 -3.71605,-12.5264 -15.34726,-21.736176 -29.03837,-21.736176 z m 0,11.561796 c 10.41225,0 18.73011,8.31383 18.73011,18.72605 0,10.41221 -8.31786,18.73011 -18.73011,18.73011 -10.41219,0 -18.72603,-8.3179 -18.72603,-18.73011 0,-10.41222 8.31384,-18.72605 18.72603,-18.72605 z m -46.94087,10.59222 c 4.56183,0 8.13788,3.57198 8.13788,8.13383 0,4.56184 -3.57605,8.13787 -8.13788,8.13787 -4.56183,0 -8.13385,-3.57603 -8.13385,-8.13787 0,-4.56185 3.57202,-8.13383 8.13385,-8.13383 z m 93.67486,0 c 4.56187,0 8.1379,3.57198 8.1379,8.13383 0,4.56184 -3.57605,8.13787 -8.1379,8.13787 -4.56181,0 -8.13381,-3.57603 -8.13381,-8.13787 0,-4.56185 3.57201,-8.13383 8.13381,-8.13383 z" style="color:#000;font-style:normal;font-variant:normal;font-weight:400;font-stretch:normal;font-size:medium;line-height:normal;font-family:sans-serif;text-indent:0;text-align:start;text-decoration:none;text-decoration-line:none;text-decoration-style:solid;text-decoration-color:#000;letter-spacing:normal;word-spacing:normal;text-transform:none;writing-mode:lr-tb;direction:ltr;baseline-shift:baseline;text-anchor:start;white-space:normal;clip-rule:nonzero;display:inline;overflow:visible;visibility:visible;isolation:auto;mix-blend-mode:normal;color-interpolation:sRGB;color-interpolation-filters:linearRGB;solid-color:#000;solid-opacity:1;fill:#fff;fill-opacity:1;fill-rule:nonzero;stroke:none;stroke-width:6.50314;stroke-linecap:butt;stroke-linejoin:miter;stroke-miterlimit:10;stroke-dasharray:none;stroke-dashoffset:0;stroke-opacity:1;color-rendering:auto;image-rendering:auto;shape-rendering:auto;text-rendering:auto;enable-background:accumulate"/></g></g></svg>